<svg id="svg" xmlns="http://www.w3.org/2000/svg" xmlns:xlink="http://www.w3.org/1999/xlink" version="1.1" width="309.968766272068" height="320.1875168085098" preserveAspectRatio="xMidYMid meet" buffered-rendering="static" style="background: rgb(255, 255, 255);" viewBox="4 20.4 606 619.6"><g><path d="M 282 20.514343039201997 C 275.125 20.27878586186704 267.925 20.43000816300217 266 20.85039259728007 C 264.075 21.27077703155797 259.35 23.247174564957774 255.5 25.2423871159463 C 251.65 27.237599666934834 246.925 29.497061401669384 245 30.2634131931342 C 243.075 31.029764984599016 239.7 33.47611134211133 237.5 35.69973843205045 C 235.3 37.92336552198958 231.42479817227124 42.1630900024806 228.88844038282497 45.12134838869716 C 226.35208259337873 48.07960677491372 222.25827250161555 53.65 219.79108462335128 57.5 C 217.323896745087 61.35 213.25686506392748 68.325 210.75323644299675 73 C 208.24960782206605 77.675 205.48091791382922 81.8375 204.60059220247047 82.25 C 203.72026649111172 82.6625 201.68816277017046 85.3625 200.08480615593436 88.25 C 198.48144954169825 91.1375 196.23144954169825 97.4375 195.08480615593436 102.25 C 193.53354536528326 108.76069255506576 193.00264043866156 114.26299084833275 193.01031740341904 123.75 C 193.01599197529953 130.7625 193.4921853501969 141.9 194.068524903191 148.5 C 194.64486445618508 155.1 195.9902216246465 164.4375 197.05820749977192 169.25 C 198.12619337489738 174.0625 199 179.125 199 180.5 C 199 182.5 198.4 183.1 196 183.5 C 194.23014286921122 183.7949761884648 192.53224519950365 184.9226071519084 191.85926713342752 186.25 C 191.08002531130055 187.78698920331252 190.94877621507683 191.51049003045833 191.44509322768118 198 C 191.84470065613556 203.225 192.58303044609318 209.8625 193.08582609425366 212.75 C 193.58862174241415 215.6375 194.45414086133943 220.5875 195.00920191408758 223.75 C 195.56426296683574 226.9125 196.52548269621457 229.95 197.14524575715166 230.5 C 197.96838590953277 231.23048413554224 198.04851591491666 230.82621033885562 197.442556661447 229 C 196.9863145978724 227.625 196.53964578820086 221.1 196.4499593066214 214.5 C 196.34159177542216 206.5252674280544 196.74193386525246 201.242103928733 197.64344648823845 198.75 C 198.8255748930087 195.48217349743027 198.80140554922798 194.83927550085656 197.45547464893014 193.75 C 196.13943188477248 192.68491327024347 195.92164514426335 192.86982654048694 195.98325242670694 195 C 196.0230191475726 196.375 195.88145048200911 197.275 195.66865539212137 197 C 195.45586030223365 196.725 195.01738880902704 194.475 194.69427429610664 192 C 194.21492530510767 188.32827154063833 194.39572671558457 187.5 195.67656851633194 187.5 C 196.60355019248337 187.5 198.13721670819865 189.54740620179464 199.42195747327406 192.5 C 200.61854506554795 195.25 202.13811773999151 197.8375 202.7987856387042 198.25 C 203.5892037232989 198.7435118847618 204 202.0778573828584 204 208 L 204 217 L 202 217.5 C 200.24419513933083 217.9389512151673 200.0525098557399 218.64101224074346 200.43006470877177 223.25 C 200.66660029859625 226.1375 201.18913863705953 229.85 201.59126101646797 231.5 L 202.3223926153924 234.5 L 200.63804438683087 233 C 199.71165286112202 232.175 198.80123862333187 231.725 198.61490163618612 232 C 198.42856464904037 232.275 197.98898301342976 235.0875 197.63805355705148 238.25 C 197.15548802676568 242.59877569206841 197.30461397998513 243.9233121718764 198.25 243.68530733501075 C 198.9375 243.51222636926664 199.95 242.38540699801442 200.5 241.18126428778356 C 201.05 239.97712157755274 201.8375 238.9937332767979 202.25 238.99595695277284 C 202.6625 238.99818062874778 203 239.675 203 240.5 C 203 241.325 203.5625 242.27262871850766 204.25 242.60584159668366 C 204.9375 242.9390544748597 205.95 242.72013088870872 206.5 242.11934473857042 C 207.2131671855337 241.3403247971127 208.0113066650495 241.52509056489802 209.28259473554613 242.76350314188676 C 210.26302184009648 243.71857641384904 211.04302184009623 245.4 211.01592806887894 246.5 C 210.98883429766164 247.6 211.4113746758061 248.95 211.95490668697772 249.5 C 212.49843869814936 250.05 214.71905862533953 255.675 216.88961763628922 262 C 219.0601766472389 268.325 223.1316429781811 278 225.93732059393858 283.5 C 230.0618860135121 291.58542994399943 231.03805298784255 294.4572850280003 231.0359429779615 298.5 C 231.0345076734166 301.25 230.57019755778543 303.95 230.00414272100335 304.5 C 229.43808788422126 305.05 228.7739717331176 307.525 228.52832905188416 310 C 228.20814239745062 313.22607604567685 228.3658695922411 314.0753586818923 229.0854834833936 313 C 229.8778107698898 311.8159816855824 230.0479877342218 312.0266361426374 229.8933323497842 314 C 229.78557160773542 315.375 230.2154878891049 317.7375 230.84870186393866 319.25 C 231.4819158387724 320.7625 231.99249999999975 323.0125 231.98333333333278 324.25 C 231.9741666666658 325.4875 232.42494797293838 326.95 232.98506956949404 327.5 C 233.54519116604973 328.05 234.54078890624376 335.475 235.19750899214745 344 L 236.39154551197237 359.5 L 240.94577275598618 364.3694899393315 C 243.45059774019379 367.0477094059639 249.73081250121223 373.5727094059639 254.90180555824938 378.8694899393315 C 260.07279861528656 384.1662704726992 263.7142694367345 387.375 262.99396293924497 386 C 262.27365644175535 384.625 259.61784394054314 380.72780702523835 257.09215738099556 377.33957116719637 C 254.566470821448 373.95133530915433 252.1625 371.36383530915435 251.75 371.58957116719637 C 251.3375 371.8153070252383 250.775 371.325 250.5 370.5 C 250.225 369.675 250.45 369 251 369 C 251.55 369 252 368.1 252 367 C 252 365.6930233401973 251.58333333333334 365.259883752574 250.79753929630124 365.75 C 249.92721556053212 366.29283919617416 249.77426899773994 365.8094639872472 250.24381523279268 364 C 250.6006203848973 362.625 251.24453704743493 360.6 251.67474114954302 359.5 C 252.24471750977486 358.04261269666483 252.12364001509675 357.7034797612493 251.22846521305158 358.25 C 250.46458610599225 358.7163618669928 249.43272373398568 358.0545395566428 248.5 356.5 C 247.675 355.125 246.5124108997185 351.8625 245.9164686660411 349.25 C 245.32052643236372 346.6375 244.4878214440892 343.6 244.06601313654215 342.5 C 243.64420482899513 341.4 242.74560617933102 338.925 242.06912724839967 337 C 241.3926483174683 335.075 240.651499143522 331.475 240.4221290840745 329 C 240.192759024627 326.525 239.44144677457263 323.90207212521267 238.75254630617587 323.17127138936144 C 237.74861190239335 322.1062757409507 237.75396757824134 321.7093053436608 238.77952905292253 321.17127138936144 C 239.6434089216755 320.7180594529739 239.9350749846171 318.87577277663144 239.67739007490658 315.5 C 239.46747265789043 312.75 239.0041845840753 309.9375 238.64786102198406 309.25 C 238.29153745989282 308.5625 238.42147616481128 306.9875 238.93661369958065 305.75 C 239.65974453209702 304.0128437167956 239.88767507289506 303.89887844639657 239.93661369958065 305.25 C 239.98725090854597 306.6480168443823 240.9050995430169 307 244.5 307 C 248 307 249.22222222222223 307.44444444444446 250 309 C 250.55 310.1 251.5625 311.0043677305603 252.25 311.0097060679118 C 252.9375 311.0150444052632 255.52499999999998 312.60896010317776 258 314.55174095216626 C 260.475 316.49452180115475 263.4 318.3162253252539 264.5 318.5999710057199 C 265.6 318.8837166861859 268.3 319.8186723343879 270.5 320.6776502239465 C 272.7 321.5366281135051 275.4 322.6076526616301 276.5 323.0577047753353 C 277.6 323.50775688904054 280.1849839039499 324.01638554292407 282.24440867544416 324.1879906728542 C 284.73762344774184 324.3957421046453 285.99068569160676 324.08231258537836 285.99440867544416 323.25 C 285.9974839039499 322.5625 286.9 321.775 288 321.5 C 289.1 321.225 290.7875 321.4149161717269 291.75 321.9220359371709 C 292.7125 322.4291557026149 295.3 322.5986561438449 297.5 322.29870358434874 C 301.0439563855138 321.8155132259044 301.5974979119219 322.02392106049524 302.35516304866377 324.1266676471779 C 302.82550272542886 325.43200044123006 303.16300272542884 327.2875 303.10516304866377 328.25 C 303.0473233718987 329.2125 303.7875 330.2109642594752 304.75 330.4688094655005 C 305.7125 330.72665467152575 308.75 330.9799978829727 311.5 331.0317943798271 C 314.25 331.08359087668146 318.1875 330.87262661720627 320.25 330.56298491432665 C 322.3125 330.253343211447 323.98533236900425 329.4375 323.9674052644539 328.75 C 323.9494781599035 328.0625 324.7369781599035 326.7113641206681 325.7174052644539 325.74747582370696 C 326.69783236900423 324.7835875267458 328.625 323.9012936026633 330 323.78682265907923 C 331.375 323.6723517154952 332.95 322.98559004008973 333.5 322.26068560262263 C 334.05 321.5357811651555 335.625 320.3783543705169 337 319.6886260589812 C 338.375 318.99889774744554 339.56059261361645 317.77429530218285 339.634650252481 316.9672872917309 C 339.7087078913455 316.1602792812789 339.8212078913455 314.9375 339.884650252481 314.25 C 339.94809261361644 313.5625 341.125 312.55 342.5 312 C 343.875 311.45 345 310.325 345 309.5 C 345 308.675 344.325 307.325 343.5 306.5 C 342.675 305.675 340.0875 304.69825875129806 337.75 304.32946389177346 C 335.4125 303.9606690322488 329.45 303.52262951626824 324.5 303.35604274515 C 319.55 303.1894559740317 313.925 303.037051251605 312 303.0173655842018 C 310.075 302.99767991679863 307.825 303.649344239629 307 304.46550852382484 C 306.175 305.28167280802063 304.7125 305.9608187791493 303.75 305.9747217929995 C 302.7875 305.98862480684977 301.775 306.675 301.5 307.5 C 301.15794539746463 308.5261638076061 300.2892457114092 308.79534951922756 298.75 308.3521480079269 C 297.5125 307.99582941228675 296.05 307.16166615997497 295.5 306.49845189167854 C 294.95 305.83523762338206 293.375 304.5815395514596 292 303.7124561762953 C 289.9885556856987 302.4411014027476 289.0764484420832 302.3636547964791 287.3326341790953 303.31615229254373 C 285.54339848008266 304.2934596579846 284.8891536159168 304.19468573005594 283.5826341790953 302.75 C 282.71218538059287 301.7875 281.325 301 280.5 301 C 279.56666666666666 301 279 301.94444444444446 279 303.5 L 279 306 L 275.75 305.41564934433234 C 273.9625 305.0942564837152 271.375 304.37882819167396 270 303.82580869535195 C 268.55214810626836 303.2434884589735 266.6582815149853 303.1754657715157 265.5 303.66418057699923 C 264.4 304.1283046082272 262.6 304.462798476737 261.5 304.40750028479874 C 260.4 304.3522020928604 257.7 303.92063951912303 255.5 303.44847234316 C 253.3 302.9763051671969 250.4875 301.5572395907284 249.25 300.2949932843409 C 248.0125 299.03274697795337 246.325 298 245.5 298 C 244.675 298 243.48154993522897 296.9875 242.8478887449533 295.75 C 242.21422755467762 294.5125 240.55521387378394 292.375 239.1611916763007 291 L 236.6266058626948 288.5 L 237.24499187812955 281.5 C 237.75555811693513 275.7204972582919 237.52657488450424 273.8461621830579 235.93168894678215 270.75 C 234.66164652103274 268.2844585863609 233.48621656545563 267.17126114484813 232.5 267.5 C 231.56691171940807 267.81102942686397 230.2294499951043 266.7716912746158 228.9611904856185 264.75 C 227.83984525270867 262.9625 226.6023452527087 260.2094135131051 226.2111904856185 258.6320300291225 C 225.82003571852832 257.0546465451399 224.91746359201855 255.25464654513993 224.2054746489301 254.63203002912252 C 223.49348570584166 254.00941351310513 222.95102211382311 252.825 223 252 C 223.04897788617689 251.175 222.37297985074196 249.825 221.49778214347793 249 C 220.62258443621388 248.175 219.70254802823243 246.0375 219.453256792408 244.25 C 219.20396555658363 242.4625 218.6625 240.9978809397393 218.25 240.99529097719847 C 217.8375 240.99270101465763 217.47557660202233 238.8552010146576 217.44572578227186 236.24529097719847 C 217.4158749625214 233.63538093973932 217.13386371521312 229.925 216.81903412158684 228 C 216.50420452796055 226.075 215.7411279259382 224.3875 215.12330833931497 224.25 C 214.50548875269175 224.1125 213.775 222.425 213.5 220.5 C 213.225 218.575 212.55 217.225 212 217.5 C 211.45 217.775 211.225 219.125 211.5 220.5 C 211.775 221.875 211.55 223 211 223 C 210.45 223 209.75686643493086 221.7625 209.45970318873526 220.25 C 209.16253994253967 218.7375 208.93753994253964 215.1375 208.95970318873526 212.25 C 208.98693059443784 208.70272478262746 208.59458933746964 206.99521881289866 207.75 206.98525819760297 C 207.0625 206.97715020628462 207.60514201640635 206.41465020628462 208.95587114756967 205.73525819760297 C 210.5466522024287 204.9351244688645 211.66749704248195 203.26711148812367 212.13779465678948 201 C 212.54976709359926 199.0140502186962 212.46071016331322 197.39185355580742 211.9319235092198 197.25 C 211.41936557914892 197.1125 211 196.55 211 196 C 211 195.43224888331346 211.9725599874553 195.28794692424174 213.25 195.66616001881704 L 215.5 196.33232003763408 L 214.79218087746966 193.41616001881704 C 214.25022331516578 191.1833367949455 214.54313282224706 190.0899266900862 216.04218087746966 188.75 C 217.3506126629587 187.5804559914368 218.00737538845524 187.41461142245487 218.0222358455888 188.25 C 218.03446556066265 188.9375 218.9244594301477 188.375 220 187 C 221.0755405698523 185.625 221.96553443933735 183.4875 221.9777641544112 182.25 C 221.9906142485719 180.9497251017004 222.52762505650023 180.13803165881527 223.25 180.32701171294548 C 223.9375 180.50686815506546 224.62484864304074 182.19436815506546 224.7774414289794 184.07701171294548 C 224.95933742097444 186.32118934838957 224.44276656851113 188.10533324901698 223.2774414289794 189.25774507832875 C 222.29984864304072 190.22450487140958 220.6 191.1757229471846 219.5 191.37156302449546 C 218.1567488690167 191.61071066571333 218.40302969489795 191.77235459725108 220.25 191.8638179461667 C 221.7625 191.938718075775 223.3375 192.50726205543626 223.75 193.1272490120806 C 224.22345231679583 193.83884722058104 225.6061907328167 193.98339310839526 227.5 193.51925886226115 C 229.15 193.11487732321612 236.35 192.71034255504514 243.5 192.62029271077006 L 256.5 192.45656572117903 L 264.5 187.72234697328582 C 268.9 185.11852666194457 272.95 183.01083578266073 273.5 183.0385894637662 C 274.05 183.06634314487167 275.175 182.38732941287938 276 181.5296700593389 C 276.825 180.6720107057984 278.61080571733976 179.86447429781697 279.9684571496439 179.73514470826902 C 281.38402390233824 179.60029811749646 283.05259556942235 178.433655383585 283.88035308224994 177 C 284.67424441287915 175.625 285.00828909174425 173.825 284.6226745908391 173 C 284.2370600899339 172.175 283.37349192235854 170.6 282.70363421844945 169.5 C 282.0337765145403 168.4 280.3639261183354 166.28009619565628 278.9928555602164 164.78910265701398 C 277.6217850020974 163.29810911837166 275.6 162.05397530729297 274.5 162.02436085461693 C 272.74432082915325 161.97709405669022 272.80540103644154 161.81655884367888 275 160.71022637359283 C 276.375 160.01706686170564 277.6354158675588 158.5612006727843 277.80092415013064 157.4749681759899 C 277.9664324327025 156.38873567919543 277.06643243270247 154.53817106088354 275.80092415013064 153.36260235751894 C 274.3497681069058 152.01457986599755 269.622181984137 150.2854293323608 263 148.68056711787784 C 257.225 147.28101643943984 249.0125 145.8803453785563 244.75 145.5679647603589 C 240.4875 145.2555841421615 235.63958333333332 145.3375 233.97685185185185 145.75 C 232.03437259399243 146.23190143916267 230.9619783506431 147.12556330862043 230.97685185185185 148.25 C 230.98958333333334 149.2125 230.55 150.225 230 150.5 C 229.44444444444446 150.77777777777777 229 149.66666666666666 229 148 C 229 145.97096922972946 229.7282269222971 144.5462268678643 231.25 143.59797884966306 L 233.5 142.19595769932613 L 231 141.58154444920157 L 228.5 140.96713119907702 L 230.21104525484105 139.7335655995385 C 231.28632790846734 138.95834841136596 231.9365646856525 137.10663547746032 231.96104525484105 134.75 C 231.98247036467848 132.6875 231.55 131 231 131 C 230.45 131 229.95514398859223 129.0875 229.9003199746494 126.75 C 229.82037376672142 123.34137944138011 229.66370774439787 122.99492908316478 229.10896406300162 125 C 228.65031574164632 126.65774291991981 228.17854397643586 127.07887145995991 227.70864408835226 126.25 C 227.31888983975853 125.5625 226.55 125.225 226 125.5 C 225.45 125.775 225 125.325 225 124.5 C 225 123.675 225.45 123 226 123 C 226.55 123 228.0125 120.75914943676811 229.25 118.0203320817069 C 230.4875 115.2815147266457 231.95 113.04199769184567 232.5 113.04362755992904 C 233.05 113.0452574280124 234.16061704601375 111.1236079912443 234.96803788003058 108.77329547822214 C 235.77545871404737 106.42298296519996 236.3280286681354 103.6 236.1959711113373 102.5 C 236.0332807636913 101.1448380028402 237.43362884106367 99.37153349502964 240.53922653736515 97 C 243.0600745784786 95.075 245.7700046243906 92.4875 246.56129330605845 91.25 C 247.3525819877263 90.0125 248.675 89 249.5 89 C 250.325 89 253.25 87.65 256 86 C 259.93939393939394 83.63636363636364 262.1666666666667 83 266.5 83 C 269.6815631872059 83 273.7915193553409 82.21380504340704 276.25 81.13491908108114 C 278.5875 80.10912457567578 282.75 78.95929148006766 285.5 78.57973442417423 C 288.25 78.20017736828082 292.9021060063786 77.8019637817943 295.83801334750797 77.6948153430931 C 298.77392068863736 77.5876669043919 301.6989206886374 76.91746359201855 302.33801334750797 76.20547464893012 C 302.97710600637856 75.49348570584169 304.2875 74.93098570584169 305.25 74.95547464893012 C 306.2125 74.97996359201855 308.2375 74.49396962951661 309.75 73.87548806559246 C 311.2625 73.25700650166831 313.4 72.3815207502798 314.5 71.929964173618 C 315.6 71.4784075969562 318.975 70.63199386670838 322 70.04904477306732 C 325.025 69.46609567942626 329.975 68.6016136265468 333 68.12797354444629 C 336.08123504120425 67.64552844762417 340.478989511742 67.64662423689178 343 68.13046524623401 C 345.750050612762 68.65826442454699 348.17631546136766 69.87023858489253 349.23914719954166 71.2470603668295 C 350.19567815928957 72.48617716507327 351.77067815928956 74.30977219040638 352.73914719954166 75.2994937564586 C 353.70761623979377 76.28921532251083 356.075 79.31454877696756 358 82.02245698858465 C 359.925 84.73036520020176 363.05488521402447 89.09559300979538 364.95530047561 91.72296323212606 C 366.8557157371955 94.35033345445673 369.2129583261158 99.425 370.19361733987745 103 C 371.1742763536391 106.575 372.6801300223231 112.425 373.53995882584206 116 C 374.399787629361 119.575 375.55888922500657 126.1 376.1157401494989 130.5 C 376.6725910739912 134.9 378.0402879868793 141.65 379.1550666225836 145.5 C 380.2698452582879 149.35 382.25855717921587 156.775 383.5744264468681 162 C 384.8902957145202 167.225 386.7014766223921 175.55 387.59927290880546 180.5 C 388.4970691952189 185.45 389.63701308972526 189.95 390.1324815632641 190.5 C 390.6861804321778 191.11463926398278 391.0422632723397 190.1512374239397 391.0565062676023 188 C 391.0692513814495 186.075 391.4888222500421 170.55 391.98888597558596 153.5 C 392.57984544608996 133.35085008688625 392.55083261998914 120.22482175597546 391.90599868086497 116 C 391.3603469432245 112.425 390.4422443852495 106.575 389.86577077425386 103 C 389.28929716325814 99.425 387.27194051885516 92.675 385.3827560089138 88 C 383.06008461388535 82.25228784450734 379.9325730066043 76.99067787143582 375.7239375408739 71.75036068252754 C 371.4461203744921 66.4239029718199 365.59146066756057 61.00353076896374 357 54.41532915978866 C 350.125 49.143363446892124 342.925 43.3374331928285 341 41.51326192853617 C 339.075 39.689090664243835 335.87366093932286 37.36485484947634 333.88591319849525 36.348293451275055 C 331.8981654576676 35.33173205307377 329.1981654576676 33.345098972852405 327.88591319849525 31.933553273005344 C 326.3591960322234 30.29131487267459 322.07893576712246 28.238885305431012 316 26.234133571547808 C 310.775 24.510998435593226 303.8 22.61549094638012 300.5 22.021894706629794 C 297.2 21.428298466879465 288.875 20.749900216536957 282 20.514343039201997 Z " class="odd" fill="#000000"></path><path d="M 340 145.12600473873096 C 338.625 145.1832011147638 335.925 145.594040822854 334 146.03898186782027 C 332.075 146.48392291278654 328.925 147.30161579463928 327 147.85607716082632 C 325.075 148.41053852701333 321.83717868690474 149.45724627017665 319.8048415264549 150.1820943678559 C 317.7725043660051 150.90694246553517 314.8475043660051 152.75297478403112 313.3048415264549 154.28438840895802 C 310.93818155888755 156.63379051224496 310.3944492696774 158.19602336837835 309.82435981033046 164.28438840895802 C 309.4527577060122 168.25297478403112 309.56525770601223 172.5125 310.07435981033046 173.75 C 310.58489532626186 174.9909842654474 312.2332414533421 176.28606155311286 313.75 176.63788747039638 C 315.2625 176.98872557911437 316.95 177.5987311258654 317.5 177.99345535206533 C 318.05 178.3881795782652 319.5125 179.00113021658686 320.75 179.35556788166895 C 322.6216378768971 179.89163168689447 323.3783621231029 179.32865142041206 325.25 176.0077021143519 C 326.4875 173.81193827724545 328.0625 172.01193827724543 328.75 172.0077021143519 C 329.4375 172.00346595145837 330.675 173.575 331.5 175.5 C 332.37130563817277 177.5330464890698 333.94304154274084 179.25500179871506 335.25 179.60840802987462 L 337.5 180.21681605974925 L 340.25 179.60840802987462 C 341.8222720199164 179.2605596945785 343 179.4282647200304 343 180 C 343 180.55 342.2125 181.0708904109589 341.25 181.15753424657532 C 340.2875 181.24417808219178 338.825 181.23430068484336 338 181.13558447469 C 337.175 181.03686826453662 333.575 180.95646495057096 330 180.9569104436552 C 326.425 180.95735593673945 323.275 181.19755436168649 323 181.4906847213153 C 322.725 181.78381508094412 323.4 182.71801316516346 324.5 183.56668046402496 C 325.6 184.41534776288643 328.3 185.9751438350669 330.5 187.03289395775926 C 333.3592809411446 188.40762339699006 336.63884823535386 188.95358456985235 342 188.9473396527759 L 349.5 188.93860330653365 L 352.23639059096945 185.71930165326683 C 354.05899787117477 183.57504540206318 354.6392705739082 182.16606254466018 353.97405940725423 181.5 C 353.3090010600247 180.83409047035195 353.3970704514769 180.1393633049368 354.2376688162848 179.42054180808185 C 354.93195096732813 178.82683980252685 357.1875 177.58933980252684 359.25 176.67054180808185 C 362.47823389902874 175.23243522285662 362.99788597293144 174.5478027124916 362.9848062158652 171.75 C 362.9718883786716 168.9868324765848 362.1854666857269 167.9326429708354 357.7348062158652 164.71243357115316 C 354.8556627971393 162.62927203528739 350.925 160.68753156005792 349 160.39745473730986 C 347.075 160.1073779145618 342.9189149913973 159.11178280754288 339.76425553643844 158.1850211661567 C 335.88854998623884 157.0464338515778 334.3650635669412 156.17571098657226 335.0663275887896 155.5 C 335.63712667254157 154.95 338.66821168114427 154.4371683718108 341.80207205235115 154.36037415957952 C 344.93593242355803 154.28357994734827 348.85 154.1641891988156 350.5 154.09506138506248 C 352.32868893883654 154.01844728301623 352.99582145407385 153.68252535973133 352.2086815040609 153.23468722548296 C 351.49845633129434 152.83060925146734 350.9846243510647 152.05 351.0668326591062 151.5 C 351.14904096714764 150.95 350.9290013073234 149.6 350.5778556372746 148.5 C 350.16013806183753 147.19145664556572 348.65340177256957 146.2445087276276 346.2197044822293 145.7610056638811 C 344.17386701700315 145.3545587790157 341.375 145.06880836269815 340 145.12600473873096 Z " class="odd" fill="#000000"></path><path d="M 251 156.64396225618208 C 254.575 156.90962104913248 257.725 157.362143966046 258 157.6495687382121 C 258.275 157.93699351037824 257.375 159.05252522660174 256 160.12852810759767 C 254.625 161.20453098859363 252.9375 162.06579516115522 252.25 162.0424484910679 C 251.5625 162.01910182098055 249.3125 162.85698156873858 247.25 163.90440348608573 C 245.1875 164.95182540343288 241.25 166.00156535928042 238.5 166.23715894352472 C 235.75 166.472752527769 233.49310925146733 167.07827095903042 233.48468722548296 167.58275545743896 C 233.47626519949856 168.08723995584754 233.13876519949855 169.0625 232.73468722548296 169.75 C 232.33060925146734 170.4375 230.875 171 229.5 171 C 228.125 171 226.99683252685188 170.6625 226.99296117078194 170.25 C 226.98908981471197 169.8375 229.01408981471198 167.3625 231.49296117078194 164.75 C 234.75239595767107 161.3148586967223 236.55362471440938 160.13840617860234 238 160.5 C 239.1 160.775 240.7875 160.56368390865535 241.75 160.03040868590074 L 243.5 159.0608173718015 L 241.75 159.03040868590074 C 240.7875 159.01368390865534 240 158.55 240 158 C 240 157.45 241.0125 156.8112129105249 242.25 156.58047313449975 C 243.4875 156.3497333584746 247.425 156.37830346323165 251 156.64396225618208 Z " class="even" fill="#ffffff"></path><path d="M 339.75 161.983016763661 C 340.9875 161.99235754364744 343.4625 162.7875 345.25 163.75 L 348.5 165.5 L 341.5 165.7564658033704 C 337.65 165.8975219952241 334.275 165.74821506494834 334 165.4246726249798 C 333.725 165.10113018501121 334.4 164.190578117142 335.5 163.4012235852704 C 336.6 162.6118690533988 338.5125 161.97367598367458 339.75 161.983016763661 Z " class="even" fill="#ffffff"></path><path d="M 347.75 171.99812729168065 C 348.4375 171.9991572812563 349.01910182098055 172.5625 349.0424484910679 173.25 C 349.0657951611552 173.9375 348.2045309885936 175.625 347.1285281075977 177 C 346.05252522660174 178.375 344.9084234056212 179.1625 344.5860796165298 178.75 C 344.2637358274384 178.3375 344.5625 176.6491572812563 345.25 174.99812729168065 C 345.9375 173.34709730210497 347.0625 171.99709730210498 347.75 171.99812729168065 Z " class="even" fill="#ffffff"></path><path d="M 266.0785562426881 174.5 C 266.6104227486263 175.05 266.81032934645077 176.2875 266.52279312674244 177.25 C 266.2352569070341 178.2125 265.55 179 265 179 C 264.45 179 264 179.675 264 180.5 C 264 181.325 263.325 182.225 262.5 182.5 C 261.675 182.775 260.4375 182.98631609134466 259.75 182.96959131409926 C 259.0625 182.95286653685383 259.2875 182.50286653685384 260.25 181.96959131409926 C 261.2125 181.43631609134465 262.7000934021755 179.3125 263.55576311594564 177.25 C 264.57479190548213 174.7937404823425 265.4451491312534 173.844997461958 266.0785562426881 174.5 Z " class="even" fill="#ffffff"></path><path d="M 214.5 175 C 214.775 175 215.225 175.675 215.5 176.5 C 215.775 177.325 215.55 178.225 215 178.5 C 214.45 178.775 214 178.1 214 177 C 214 175.9 214.225 175 214.5 175 Z " class="even" fill="#ffffff"></path><path d="M 247.111904092872 176.25 C 247.7234513439516 176.3875 248.96095134395162 177.53282884532368 249.861904092872 178.79517521183038 C 251.27275446088268 180.77195128346904 251.29191187329587 181.08643948008202 250 181.06215844816936 C 249.175 181.0466528616491 247.64495806795048 180.46382401632542 246.59990681766774 179.766983236339 C 245.554855567385 179.07014245635256 244.992355567385 177.9375 245.34990681766774 177.25 C 245.70745806795048 176.5625 246.5003568417924 176.1125 247.111904092872 176.25 Z " class="even" fill="#ffffff"></path><path d="M 397.5 178.95712931350687 C 396.95 178.95242257537552 395.375 180.10320428453605 394 181.5144220005303 L 391.5 184.08027239324707 L 393.14652170489796 186.79013619662354 C 394.05210864259186 188.28056128848058 395.74142801384414 189.95 396.9005647521253 190.5 C 398.05970149040644 191.05 399.03789509137704 192.175 399.0743283098377 193 C 399.1163805573564 193.95223825038593 399.41361974332 193.76965100051459 399.8882931024862 192.5 C 400.2995405199822 191.4 400.1554121518075 187.90477957932006 399.5680078398758 184.73284350960012 C 398.98060352794414 181.56090743988017 398.05 178.96183605163822 397.5 178.95712931350687 Z " class="odd" fill="#000000"></path><path d="M 211.831265266893 182.30562233639256 C 212.01346116368418 182.41253005137665 211.39289625432338 184.975 210.45223213498008 188 C 209.5115680156368 191.025 209.02499864553496 194.2875 209.37096686808707 195.25 C 209.71693509063917 196.2125 209.68381340992613 198.2375 209.2973631331692 199.75 L 208.59472626633837 202.5 L 207.95108262887817 198.5 C 207.59707862827509 196.3 207.71636173579722 192.025 208.2161562011496 189 C 208.71595066650198 185.975 209.65927689343295 183.18753005137665 210.3124367054406 182.80562233639256 C 210.96559651744826 182.4237146214085 211.64906937010187 182.1987146214085 211.831265266893 182.30562233639256 Z " class="even" fill="#ffffff"></path><path d="M 222.8550740985034 194.33275698644405 C 221.81680556790968 193.4384061241045 220.9155198445244 193.47994774530193 219 194.51044317821749 C 217.05791708607464 195.55522879026128 216.83475025164478 195.99107605904368 218 196.46345411685405 C 218.825 196.797899070173 220.55978334432652 196.71794028387495 221.8550740985034 196.28576792508062 C 223.7794632934911 195.64369755211274 223.96233860250553 195.28654007320102 222.8550740985034 194.33275698644405 Z " class="odd" fill="#000000"></path><path d="M 291.25 216.09160953386385 C 290.1012195803638 215.49530028764588 288.38344935075287 215.667077310607 286.25 216.59160953386385 C 284.4625 217.36622429023873 283 218.675 283 219.5 C 283 220.63333333333333 284.22222222222223 221 288 221 C 292.3333333333333 221 293 220.73333333333332 293 219 C 293 217.9 292.2125 216.59122429023873 291.25 216.09160953386385 Z " class="odd" fill="#000000"></path><path d="M 309.75 214.98333333333335 C 307.89436334144364 214.99457961611247 306.51216545012164 215.8130575831306 305.5 217.5 C 304.675 218.875 304.225 220.45 304.5 221 C 304.775 221.55 305.9 222 307 222 C 308.3333333333333 222 308.8333333333333 222.5 308.5 223.5 C 308.1862745098039 224.44117647058823 308.9313725490196 225.37254901960785 310.5 226 C 311.875 226.55 313.9 227 315 227 C 316.1 227 317.675 226.325 318.5 225.5 C 319.325 224.675 319.775 223.55 319.5 223 C 319.225 222.45 318.325 222.225 317.5 222.5 C 316.675 222.775 315.2125 222.56368390865535 314.25 222.03040868590074 C 313.2875 221.49713346314616 313.0625 221.04713346314617 313.75 221.03040868590074 C 314.4375 221.01368390865534 315.0075 220.2125 315.01666666666665 219.25 C 315.02583333333337 218.2875 314.46333333333337 216.93 313.76666666666665 216.23333333333335 C 313.07 215.53666666666666 311.2625 214.97416666666666 309.75 214.98333333333335 Z " class="odd" fill="#000000"></path><path d="M 278.75 220.93552380915037 L 275 219 L 274.4113487225631 221.25 C 273.9690978041254 222.94041434993147 274.5286834541939 224.05064150187522 276.6613487225631 225.71403708094994 C 278.2226069251534 226.9317574754724 279.725 227.95318199311123 280 227.9838693423695 C 280.275 228.01455669162777 280.3179124472377 229.2682400052003 280.0953609938615 230.76983226141954 C 279.8728095404854 232.2714245176388 278.52280954048535 234.98333170713647 277.0953609938615 236.79629268252546 C 274.9650582994359 239.50192831464292 273.82804391103616 240.0842902584116 270.75 240.04629268252546 C 268.6875 240.02083170713647 266.4375 240.5972695917255 265.75 241.32726575939003 C 265.0625 242.05726192705455 263.6 243.12097977383434 262.5 243.69108319667848 C 261.4 244.26118661952262 259.54753969545436 246.7014170277971 258.3834215454542 249.11381743728845 C 257.219303395454 251.5262178467798 255.981803395454 255.6375 255.6334215454542 258.25 C 255.08816376381952 262.3388638559136 255.24357647413711 263.0063535592114 256.75 263.0456477936111 C 257.7125 263.0707540800973 263.7875 263.2957540800973 270.25 263.5456477936111 C 276.7125 263.795541507125 281.98862480684977 263.6625 281.9747217929995 263.25 C 281.96081877914924 262.8375 281.1733187791492 261.7129388530174 280.2247217929995 260.7509752289276 C 279.2761248068498 259.78901160483775 278.7733249746162 258.4390116048378 279.1073888324804 257.7509752289276 C 279.4414526903446 257.0629388530174 281.9164526903446 256.1676952196434 284.6073888324804 255.7615449325409 C 287.29832497461615 255.35539464543837 296.475 254.96940078146002 305 254.90378079036677 C 318.89607434334226 254.7968177082974 320.9397860671481 255.00258119860766 324.75 256.8922358578259 C 327.0875 258.05150613602166 330.125 259 331.5 259 C 332.875 259 334.92841588982265 259.5625 336.06314642182804 260.25 C 337.88112599755993 261.35146058739315 338.4267656879315 261.14350540974357 340.6548544472913 258.5 C 342.54553980909145 256.25680526143964 343.0116041076351 254.8693289488003 342.5023480719674 253 C 342.1277606835398 251.625 340.1739920720813 248.95040285120547 338.1606400465041 247.05645078045657 L 334.5 243.61290156091314 L 331 244.58319261794577 C 329.075 245.11685269931368 326.1704441309173 245.31644984810822 324.5454314020384 245.02674183748917 C 322.46107403711966 244.65514165560853 321.43021649746015 243.78997400084057 321.0454314020384 242.08929735540485 C 320.7454441309173 240.76341090087752 320.05 239.51067251126472 319.5 239.3054342673764 C 318.95 239.10019602348808 318.1625 239.8475122135559 317.75 240.96613691197155 C 317.3375 242.0847616103872 316.325 243 315.5 243 C 314.675 243 313.4375 241.83150871916754 312.75 240.40335270926118 C 312.0625 238.97519669935485 310.15 236.96397819642021 308.5 235.93397825829533 C 306.85 234.90397832017044 305.1625 234.0474696010029 304.75 234.03062554903414 C 304.3375 234.01378149706537 304.1125 235.5763699170322 304.25 237.5030442600716 C 304.43382209015766 240.07879193127627 304.96324536889637 241.00528266906895 306.25 241.0030442600716 C 307.5284542800159 241.0008202901756 308 241.8083640914013 308 244 C 308 246.44700766250816 308.3119577575684 246.86175191562702 309.69238018188446 246.25 C 310.94087726226275 245.69671249385522 311.24615205576 245.89342498771043 310.85629250202123 247 C 310.56563517806006 247.825 309.69156409621206 248.52664881322266 308.9139123201368 248.55921958493929 C 308.13626054406154 248.59179035665588 306.4875 248.92929035665588 305.25 249.30921958493929 C 304.0125 249.68914881322266 301.425 249.55 299.5 249 C 297.4390183742583 248.41114810693094 295.89721297326724 248.37448479903182 295.75 248.9108270054487 C 295.6125 249.41178185844547 293.7 249.9625966760901 291.5 250.13485993354783 C 288.0047744427987 250.4085412699265 287.53510056796665 250.1989555133614 287.7781485351917 248.47403292809915 C 287.9311302295471 247.3883148176446 288.26863022954706 245.4875 288.5281485351917 244.25 C 288.8496009486993 242.7171703187655 290.0359126826613 241.74252329837154 292.25 241.19221060394517 C 294.8089845829294 240.55617349294263 295.5531550320824 239.81200304378967 295.75 237.69221060394517 C 295.92392540393826 235.81923533683323 295.0871048472589 234.08710484725893 293 232 C 290.77777777777777 229.77777777777777 290.1296296296296 228.35185185185185 290.5 226.5 C 290.87772500269114 224.61137498654446 290.44976251211 223.72985366465204 288.75 222.8953328918687 C 287.5125 222.28776598239645 285.6 222.03375169651412 284.5 222.33085670101903 C 283.4 222.62796170552394 280.8125 222.00006190418304 278.75 220.93552380915037 Z " class="odd" fill="#000000"></path><path d="M 388.76943067497734 220.5 C 388.54468606597493 219.4 387.5405453353803 222.1 386.53800682921155 226.5 C 385.5354683230429 230.9 384.37364444684164 234.725 383.9561759932089 235 C 383.53870753957614 235.275 382.99923841301575 236.85 382.75735571196367 238.5 C 382.5154730109116 240.15 381.56149677991624 243.075 380.637408531974 245 C 379.7133202840318 246.925 378.95255574556506 249.175 378.9468206687145 250 C 378.941085591864 250.825 378.2680623172482 252.4 377.4512133917906 253.5 C 376.6343644663329 254.6 375.9736759836746 254.9375 375.983016763661 254.25 C 375.9923575436475 253.5625 375.6625 252.99495164565403 375.25 252.98878143478672 C 374.8375 252.9826112239194 373.2970948826519 255.5701112239194 371.8268775170042 258.7387814347867 C 370.35666015135655 261.907451645654 368.69200821568455 266.075 368.1276509932887 268 C 367.5632937708928 269.925 366.4036988882409 271.8375 365.55077347628446 272.25 C 364.697848064328 272.6625 364 273.45 364 274 C 364 274.55 364.675 275 365.5 275 C 366.325 275 367 275.45 367 276 C 367 276.55 366.325 277.225 365.5 277.5 C 364.675 277.775 363.98749999999995 278.5625 363.97222222222206 279.25 C 363.9569444444442 279.9375 364.29444444444425 280.1748265226418 364.72222222222206 279.7773922725373 C 365.1499999999999 279.37995802243285 366.2875 279.49245802243286 367.25 280.0273922725373 C 368.7216751858966 280.84531379146193 369.35784618956154 280.23267757073063 371.25 276.1753699879507 C 372.4875 273.5218234813236 374.0625 271.4968234813236 374.75 271.6753699879507 C 375.4375 271.85391649457785 375.98443656917294 271.4375 375.9654145981621 270.75 C 375.9463926271513 270.0625 376.7957608082645 268.375 377.8528994450804 267 C 378.91003808189635 265.625 380.80220240516695 261.125 382.0577090523484 257 C 383.3132156995299 252.875 385.1029896673783 247.7 386.034984536456 245.5 C 387.10996793773273 242.96247156365882 387.62932897075814 239.4891015999691 387.4554867764478 236 C 387.30476813936554 232.975 387.6306888686839 228.7 388.17975506382186 226.5 C 388.7288212589599 224.3 388.9941752839798 221.6 388.76943067497734 220.5 Z " class="odd" fill="#000000"></path><path d="M 295 222.50685043730982 C 294.725 222.2172848444969 294.1358394564614 222.7722848444969 293.69075434769195 223.74018377064317 C 293.0358034941422 225.16446468981854 293.1311359795984 225.26484653587474 294.19075434769195 224.26666666666665 C 294.9108394564614 223.58833333333334 295.275 222.79641603012277 295 222.50685043730982 Z " class="odd" fill="#000000"></path><path d="M 215 227.5 C 215.55 227.775 215.71766014711056 228.7875 215.37257810469015 229.75 C 214.83541646208937 231.24824684407474 214.62912028838403 231.2842115806355 213.93856111031522 230 C 213.49493380582942 229.175 213.32727365871884 228.1625 213.56598300562507 227.75 C 213.80469235253128 227.3375 214.45 227.225 215 227.5 Z " class="even" fill="#ffffff"></path><path d="M 205.25 231.32711887837334 C 205.9375 231.50703426147868 206.6125 232.85703426147867 206.75 234.32711887837334 C 206.92025998276267 236.1474576531526 206.521559896576 237 205.5 237 C 204.675 237 203.84824028550068 236.2125 203.66275619000152 235.25 L 203.32551238000306 233.5 L 203.66275619000152 232.25 C 203.84824028550068 231.5625 204.5625 231.147203495268 205.25 231.32711887837334 Z " class="even" fill="#ffffff"></path><path d="M 313.5 247 C 313.775 247 314.225 247.45 314.5 248 C 314.775 248.55 314.55 249 314 249 C 313.45 249 313 248.55 313 248 C 313 247.45 313.225 247 313.5 247 Z " class="even" fill="#ffffff"></path><path d="M 301 269.4951116443972 C 298.525 269.1754565654613 295.9981515612239 269.27078845863446 295.38478124716426 269.70696029589317 C 294.7714109331046 270.14313213315194 294.0029165628947 271.4 293.6770159800311 272.5 C 293.27340034274766 273.8623087050376 293.78840581181936 275.0342956103307 295.29223473286686 276.17571868881214 C 296.5065056297901 277.0973639676588 298.4 277.653455004223 299.5 277.41147654784373 C 300.6 277.16949809146445 302.5125 275.627924681499 303.75 273.9857578590316 C 304.9875 272.3435910365642 305.8875 270.7921681068268 305.75 270.538151348504 C 305.6125 270.2841345901812 303.475 269.81476672333315 301 269.4951116443972 Z " class="odd" fill="#000000"></path><path d="M 392.29518746363317 301.6023864241323 C 391.08254056863143 299.34607389085954 390.0600003778072 297.95 390.02287592846835 298.5 C 389.9857514791294 299.05 390.9059339483697 301.975 392.06772586011334 305 C 393.229517771857 308.025 394.58955796268117 311.2875 395.09003739527816 312.25 C 395.5905168278752 313.2125 397.1277062648012 317.9375 398.50601392178044 322.75 C 399.88432157875974 327.5625 401.01659234908135 332.625 401.0221711891619 334 C 401.0277500292424 335.375 399.8927729941195 338.075 398.5 340 C 397.1072270058805 341.925 395.9749562355588 343.8375 395.9838427326186 344.25 C 395.9927292296784 344.6625 394.7625 346.3938702168275 393.25 348.09748937072777 C 391.7375 349.80110852462803 389.21919719136497 352.61360852462803 387.65377153636666 354.34748937072777 C 386.08834588136835 356.0813702168275 383.5008458813683 359.4125 381.90377153636666 361.75 C 379.8070251866999 364.81882682555454 379.0050213330044 367.18117317444546 379.0180673467112 370.25 C 379.029026203506 372.82786282193706 378.04706279503074 376.46722020948584 376.52225268463053 379.5 C 375.13961757979496 382.25 374.0064872737749 384.8375 374.0041853379193 385.25 C 374.0018834020637 385.6625 374.675 386 375.5 386 C 376.74107596438705 386 376.9978682049251 387.8556222552263 376.98765007425914 396.75 C 376.9808576151017 402.6625 376.3024627416532 414.925 375.48010591104025 424 C 374.6577490804273 433.075 373.3207382587477 448.15 372.50897075175226 457.5 C 371.69720324475685 466.85 370.5583826635621 478.1 369.97825834909736 482.5 C 369.39813403463256 486.9 368.53353931096956 493.65 368.0569367409573 497.5 C 367.58033417094515 501.35 366.4649108942055 509.9 365.57821834820254 516.5 C 364.69152580219964 523.1 363.0255689714912 533 361.87609205773947 538.5 C 360.7266151439877 544 358.01216178347033 554.125 355.84397347881196 561 C 353.6757851741536 567.875 350.12390501678794 578.3375 347.95090646244387 584.25 C 345.77790790809973 590.1625 341.75 600.625 339 607.5 C 336.25 614.375 333.998367871583 620.3375 333.99637304796227 620.75 C 333.9943782243415 621.1625 332.70271993659145 624.875 331.1260212974065 629 C 329.5493226582216 633.125 327.9759547866386 637.2875 327.62964824944424 638.25 L 327 640 L 468.5 640 L 610 640 L 609.9763180490004 636.75 C 609.9632929759505 634.9625 609.5319395880853 628.1 609.0177549648554 621.5 C 608.5035703416256 614.9 607.3556965328116 603.875 606.4669242786022 597 C 605.5781520243927 590.125 604.2331727526441 580.45 603.4780814524943 575.5 C 602.7229901523443 570.55 601.3605866286921 559.075 600.4505180666004 550 C 599.5404495045087 540.925 597.8929578742168 529.9 596.7894255548406 525.5 C 595.6858932354643 521.1 593.0720876621654 509.4 590.9809687252873 499.5 C 588.8898497884094 489.6 586.4636740783151 479.8125 585.5894671473001 477.75 C 584.7152602162851 475.6875 583.3613747215874 470.2875 582.5808327146386 465.75 C 581.8002907076899 461.2125 580.2901765522336 455.025 579.2250234802913 452 C 578.159870408349 448.975 575.699384567182 442.225 573.7572771665868 437 C 571.8151697659918 431.775 569.0502839214481 424.6875 567.6130864009342 421.25 L 565 415 L 565 400.5 C 565 389.8333333333333 564.6034482758621 385.07471264367814 563.5 382.5 C 562.675 380.575 561.4375 379.01296457076967 560.75 379.0288101572659 C 560.0625 379.0446557437622 558.9375 377.9196557437622 558.25 376.5288101572659 C 557.5625 375.13796457076967 556.2125 373.9314585172117 555.25 373.8476855938037 C 554.2875 373.7639126703957 553.05 373.60659708229934 552.5 373.4980953980339 C 551.95 373.3895937137684 549.475 372.35234764579616 547 371.1931041358733 C 544.525 370.0338606259504 538.9 368.5876328168385 534.5 367.97926456006905 C 530.1 367.37089630329956 523.575 365.97041572738107 520 364.8670855024724 C 516.425 363.76375527756363 512.825 362.4778878134863 512 362.0096022489671 C 511.17499999999995 361.54131668444796 506.45 360.2711191304684 501.5 359.1869410179014 C 496.55 358.1027629053344 489.575 356.0134288028572 486 354.54397634572996 C 482.425 353.0745238886027 475.675 350.1284059184005 471 347.9970475230585 C 466.325 345.86568912771645 454.4 341.1432875961933 444.5 337.50282189745155 C 434.6 333.86235619870985 424.025 329.9868209532507 421 328.89052135198676 C 417.975 327.7942217507229 414.7125 326.02036824600884 413.75 324.9486246748444 C 412.7875 323.87688110368 411.6625 322.99645666077504 411.25 322.9921259128334 C 410.8375 322.98779516489174 406.9 319.09636905575127 402.5 314.34451233696564 C 398.1 309.59265561818006 393.5078343586349 303.858698957405 392.29518746363317 301.6023864241323 Z " class="odd" fill="#000000"></path><path d="M 218.71779642152785 321.3791327684836 C 218.59800838968752 321.31265579114955 216.4555067869817 323.33765579114953 213.9566817488482 325.8791327684836 C 210.2330690169135 329.6663030930569 207.52676888371477 331.20605936822784 198.9566817488482 334.413420538061 C 193.2055067869817 336.56580183399456 182.2 341.4481547936164 174.5 345.26309378166513 C 166.8 349.0780327697138 158.925 353.1402148033337 157 354.29016496748716 C 155.075 355.44011513164054 148.55 357.82244560618955 142.5 359.5842326887072 C 136.45 361.34601977122475 120.25 366.23250640004244 106.5 370.4430918638576 C 92.75 374.65367732767277 79.7 378.7957739455017 77.5 379.6477510145885 C 75.3 380.49972808367534 71.475 381.9593662909066 69 382.8913914751023 C 66.525 383.823416659298 63.150000000000006 385.50742426585515 61.5 386.6336306007847 C 59.85 387.7598369357143 57.50853030066415 390.66549082391805 56.29673400147588 393.09063924123745 C 55.08493770228762 395.51578765855686 53.59890315161162 400.65 52.99443499997368 404.5 C 52.34142622830462 408.65916663948855 52.15413827492951 416.1670833779831 52.532945180877164 423 L 53.17048836475874 434.5 L 49.012538720617044 439.5 C 46.72566641633911 442.25 43.7236102369169 446.975 42.34130276634545 450 C 40.958995295774 453.025 38.499168486033994 461.35 36.8750209669232 468.5 C 35.25087344781241 475.65 33.27998056412898 483.975 32.49525900318224 487 C 31.710537442235506 490.025 29.747731280652115 499.475 28.13346753299693 508 C 26.519203785341748 516.525 23.836298830282125 532.05 22.171456521753328 542.5 C 20.50661421322453 552.95 18.394081879198954 567.8 17.476940223918717 575.5 C 16.55979856863848 583.2 14.763525720998121 593.775 13.48522278471792 599 C 12.206919848437717 604.225 10.40697469752205 612.1 9.485344671571994 616.5 C 8.563714645621937 620.9 6.951274752067386 627.65 5.902144908117435 631.5 C 4.853015064167485 635.35 3.9958429782251734 638.8375 3.997318050467854 639.25 C 3.998793122710534 639.6625 65.42499999999998 640 140.5 640 C 215.57500000000002 640 277.0018398627745 639.8875 277.0040885839433 639.75 C 277.00633730511214 639.6125 275.6240594309254 635.9 273.93235997463944 631.5 C 272.2406605183535 627.1 270.25718714299893 622.15 269.5246413627404 620.5 C 268.79209558248186 618.85 265.3368734566686 610.9782652936469 261.8463699720443 603.0072562081042 C 258.3558664874199 595.0362471225615 253.06560675992162 584.0112471225615 250.09023724427027 578.5072562081042 C 247.11486772861892 573.0032652936469 243.00060249533465 565.125 240.94742561474968 561 C 238.8942487341647 556.875 236.4452685489838 550.575 235.50524742545878 547 C 234.56522630193376 543.425 233.3935452449045 537.8 232.90151174317148 534.5 C 232.40947824143848 531.2 231.548758095613 524.225 230.9888003080037 519 C 230.42884252039443 513.775 229.9634537083275 492.4 229.954602947855 471.5 C 229.94575218738248 450.6 230.28984575846727 430.9065017052949 230.7192553280434 427.73667045621085 C 231.3333466358919 423.20354880424 231.87354515203836 421.9761861618282 233.25 421.98667045621085 C 234.2125 421.9940017052949 235.9 420.65 237 419 C 238.1 417.35 239 415.55 239 415 C 239 414.45 239.45 414.225 240 414.5 L 241 415 L 241 414.5 C 241 414.225 239.36767900910343 412.5375 237.37262002022985 410.75 C 235.37756103135627 408.9625 232.59978397137232 405.475 231.19978210915446 403 C 228.95608081035903 399.0334619085997 228.73315495479358 397.7887174552004 229.31929854721113 392.5 L 229.9842729165731 386.5 L 227.154328482475 382.5 C 225.59785904372103 380.3 222.9720631352462 375.8 221.31922646364205 372.5 C 219.6663897920379 369.2 217.34508550835 364.925 216.16077249989118 363 C 214.97645949143237 361.075 214.02583040165968 358.15 214.04826341150743 356.5 C 214.07069642135522 354.85 213.37397788617687 352.825 212.5 352 C 211.54652419067165 351.0999571555101 210.92566557607674 348.90011425197304 210.94774262072008 346.5 C 210.96797894829297 344.3 211.61072092163994 341.6 212.37605811704668 340.5 C 213.14139531245345 339.4 214.9303831148355 334.675 216.3515865667846 330 C 217.7727900187337 325.325 218.83758445336818 321.4456097458176 218.71779642152785 321.3791327684836 Z " class="odd" fill="#000000"></path><path d="M 295.2533165959717 325.4484247256308 C 294.28899246818725 324.8700583247277 292.7125 324.53255832472775 291.75 324.6984247256308 C 290.7875 324.86429112653383 290.14715527082546 325.5625 290.3270117129455 326.25 C 290.50686815506543 326.9375 292.0818681550654 327.6125 293.8270117129455 327.75 C 295.5721552708255 327.8875 297.0014924681873 327.6625 297.0033165959717 327.25 C 297.00514072375614 326.8375 296.2176407237562 326.02679112653385 295.2533165959717 325.4484247256308 Z " class="odd" fill="#000000"></path><path d="M 373 326.98813837291266 C 372.725 326.98964816879345 371.91588717933803 331.3804346786575 371.2019715096401 336.74544172816616 C 370.4880558399422 342.1104487776748 369.7002329101022 348.075 369.45125388777353 350 L 368.9985647562668 353.5 L 370.41955599901837 350.5 C 371.2011011825318 348.85 372.2139241123717 342.88421349013595 372.670273620885 337.2426966447465 C 373.12662312939824 331.60117979935706 373.275 326.9866285770318 373 326.98813837291266 Z " class="odd" fill="#000000"></path><path d="M 253.5 352 C 252.675 352 251.775 352.675 251.5 353.5 C 251.225 354.325 251.71420674352115 355.3375 252.58712609671366 355.75 C 253.5862129823626 356.2221207507004 254.48803006926832 355.9442415014009 255.02114309108862 355 C 255.48693308480233 354.175 255.6727263412812 353.1625 255.43401699437493 352.75 C 255.19530764746872 352.3375 254.325 352 253.5 352 Z " class="odd" fill="#000000"></path><path d="M 397.5 359 C 397.775 359 400.3625 361.1631752904344 403.25 363.8070562009654 C 406.1375 366.4509371114964 409.1469199245615 368.8134371114964 409.93759983235884 369.0570562009654 C 410.74031850077125 369.30438459412414 411.07153784445916 370.0520322394799 410.68759983235884 370.75 L 410 372 L 407.47118984273413 370.75 C 406.0803442562379 370.0625 404.9553442562379 369.1625 404.97118984273413 368.75 C 404.98703542923033 368.3375 404.325 368.225 403.5 368.5 C 402.6564112261143 368.7811962579619 401.7037141398637 368.2341869028666 401.32294151513025 367.25 C 400.9505593484519 366.2875 400.37889991426164 365.275 400.05258721692974 365 C 399.72627451959784 364.725 398.9059508377892 363.2625 398.2296457017995 361.75 C 397.5533405658098 360.2375 397.225 359 397.5 359 Z " class="even" fill="#ffffff"></path><path d="M 412.25 363.98809523809524 C 413.2125 363.9946428571429 414.225 364.45 414.5 365 C 414.775 365.55 414.76428571428573 366.3375 414.4761904761905 366.75 C 414.18809523809523 367.1625 413.17559523809524 366.70714285714286 412.2261904761905 365.73809523809524 L 410.5 363.9761904761905 L 412.25 363.98809523809524 Z " class="even" fill="#ffffff"></path><path d="M 553.6893255136858 379.5 L 554.1466483264211 381.5 L 553.6893255136858 383 C 553.4377979666814 383.825 553.2320027009505 382.925 553.2320027009505 381 C 553.2320027009505 379.075 553.4377979666814 378.4 553.6893255136858 379.5 Z " class="even" fill="#ffffff"></path><path d="M 466.73467973095296 495.0757642742735 C 468.8056058789288 495.39243462512394 472.1875 496.6299346251239 474.25 497.8257642742735 C 476.3125 499.0215939234231 478.0200364079815 500.7875 478.04452535106986 501.75 C 478.0690142941583 502.7125 477.5065142941583 504.06431686916414 476.79452535106986 504.75403748703144 C 476.0825364079815 505.44375810489873 474.825 505.7604023551327 474 505.45769137644027 C 473.175 505.1549803977478 470.99484815731023 504.8156635285837 469.1552181273561 504.7036538894088 C 466.2174812383937 504.5247837668486 465.6412597869063 504.01321790277484 464.42027446552333 500.5 C 463.6556854814695 498.3 463.01644320308804 496.05 462.9997360691202 495.5 C 462.981707685046 494.9065043555729 464.49997855140043 494.73405068527546 466.73467973095296 495.0757642742735 Z " class="even" fill="#ffffff"></path><path d="M 444.75 504.9818756468345 C 445.1625 504.97190725259344 446.90850268155003 506.4344072525935 448.63000595900013 508.2318756468345 C 450.3515092364502 510.0293440410755 452.2640092364502 512.5125 452.88000595900013 513.75 L 454 516 L 451.75 515.4310484173121 C 450.02092588336336 514.9938219927587 449.2105967314648 515.4568672224151 448.25 517.4310484173121 C 447.5625 518.8439717877905 446.55 520 446 520 C 445.45 520 444.5982610222761 518.9875 444.1072467161692 517.75 C 443.4172929602591 516.0111142642495 443.7012453292866 514.9960069041284 445.3572467161692 513.2813484282694 L 447.5 511.062696856539 L 445.75 508.5313484282695 C 444.7875 507.1391067927213 444 505.775 444 505.5 C 444 505.225 444.3375 504.9918440410755 444.75 504.9818756468345 Z " class="even" fill="#ffffff"></path><path d="M 475.75 517.6575579668252 C 476.7125 518.0192148485789 480.2 520.8526974485 483.5 523.9541859666497 C 486.8 527.0556744847995 491.20833170713644 530.9222733997282 493.29629268252546 532.5466279998246 C 495.3842536579145 534.1709825999211 497.0833250461564 535.95 497.0720068786187 536.5 C 497.060688711081 537.05 496.02735700394453 538.4440290513144 494.77571419609325 539.5978423362541 C 493.52407138824196 540.7516556211938 490.5875 542.4391556211938 488.25 543.3478423362541 C 485.059663991681 544.588063062388 483.9949246193137 544.6883341200938 483.9796441437227 543.75 C 483.96844842277017 543.0625 486.44344842277013 541.4875 489.4796441437227 540.25 C 492.51583986467523 539.0125 495 537.55 495 537 C 495 536.45 493.0875 534.6217258228603 490.75 532.937168495245 C 488.4125 531.2526111676299 486.3875 530.3526111676299 486.25 530.937168495245 C 486.1125 531.5217258228603 486.4464204919814 532.5625 486.99204553773654 533.25 C 487.5376705834916 533.9375 487.6501705834916 534.8235097597781 487.24204553773654 535.2189105772848 C 486.8339204919814 535.6143113947913 485.375 535.2908016350132 484 534.5 C 482.625 533.7091983649868 481.275 533.2373770546875 481 533.4515081993347 C 480.725 533.665639343982 480.5 531.2891491037601 480.5 528.1704187766195 L 480.5 522.5 L 477.5 522.5667634388931 C 475.85 522.6034833302842 471.8 522.9498797256118 468.5 523.3365332062878 C 465.2 523.7231866869637 460.925 524.4308858398931 459 524.9091979905755 C 457.075 525.387510141258 453.7 526.5317285327811 451.5 527.4519055272937 C 449.3 528.3720825218062 446.0375 529.7718398213749 444.25 530.5624773041128 C 442.4625 531.3531147868507 440.6625 531.7696789724014 440.25 531.4881754942252 C 439.8375 531.206672016049 440.4 530.2914012182417 441.5 529.4542403879867 C 442.6 528.6170795577317 445.975 526.8014348089823 449 525.4194742796547 C 452.025 524.037513750327 457.65 522.2531528101308 461.5 521.4542277458854 C 465.35 520.65530268164 469.9625 520.0012684579881 471.75 520.0008183599923 C 474.1942392887885 520.0002028930245 474.87603681365977 519.6281104409793 474.5 518.5 C 474.1370848767111 517.4112546301334 474.47979706848895 517.1802825056253 475.75 517.6575579668252 Z " class="even" fill="#ffffff"></path><path d="M 424.5 521 C 424.775 521 425 522.8 425 525 C 425 527.2 424.6625 528.8179711762656 424.25 528.5954915028126 C 423.8375 528.3730118293595 423.4381752673331 526.9105118293594 423.3626117051847 525.3454915028126 C 423.2870481430362 523.7804711762657 423.3995481430362 522.1625 423.6126117051847 521.75 C 423.8256752673331 521.3375 424.225 521 424.5 521 Z " class="even" fill="#ffffff"></path></g></svg>